<?xml version="1.0" encoding="utf-8"?>
<!-- Generator: Adobe Illustrator 24.0.0, SVG Export Plug-In . SVG Version: 6.00 Build 0)  -->
<svg version="1.1" id="Capa_1" xmlns="http://www.w3.org/2000/svg" xmlns:xlink="http://www.w3.org/1999/xlink" x="0px" y="0px"
	 viewBox="0 0 512 512" style="enable-background:new 0 0 512 512;" xml:space="preserve">
<g>
	<g>
		<path d="M300.4,334c-1.9-1.9-4.4-2.9-7.1-2.9c-2.6,0-5.2,1.1-7.1,2.9c-1.9,1.9-2.9,4.4-2.9,7.1s1.1,5.2,2.9,7.1
			c1.9,1.9,4.4,2.9,7.1,2.9c2.6,0,5.2-1.1,7.1-2.9c1.9-1.9,2.9-4.4,2.9-7.1S302.3,335.8,300.4,334z"/>
	</g>
</g>
<g>
	<g>
		<path d="M263.1,248.9c-1.9-1.9-4.4-2.9-7.1-2.9s-5.2,1.1-7.1,2.9s-2.9,4.4-2.9,7.1s1.1,5.2,2.9,7.1c1.9,1.9,4.4,2.9,7.1,2.9
			s5.2-1.1,7.1-2.9c1.9-1.9,2.9-4.4,2.9-7.1S264.9,250.8,263.1,248.9z"/>
	</g>
</g>
<g>
	<g>
		<path d="M256,277.7c-5.5,0-10,4.5-10,10v15c0,5.5,4.5,10,10,10s10-4.5,10-10v-15C266,282.2,261.5,277.7,256,277.7z"/>
	</g>
</g>
<g>
	<g>
		<path d="M46.8,492h-7.9v-68.4c0-4-2.4-7.7-6.2-9.2c-3.7-1.5-8-0.7-10.9,2.2L2.9,435.4c-3.9,3.9-3.9,10.2,0,14.1
			c3.9,3.9,10.2,3.9,14.1,0l1.8-1.8V492h-7.9c-5.5,0-10,4.5-10,10s4.5,10,10,10h35.9c5.5,0,10-4.5,10-10
			C56.8,496.5,52.3,492,46.8,492z"/>
	</g>
</g>
<g>
	<g>
		<path d="M46.8,362.5h-7.9v-68.4c0-4-2.4-7.7-6.2-9.2c-3.7-1.5-8-0.7-10.9,2.2L2.9,305.9c-3.9,3.9-3.9,10.2,0,14.1
			c3.9,3.9,10.2,3.9,14.1,0l1.8-1.8v44.2h-7.9c-5.5,0-10,4.5-10,10s4.5,10,10,10h35.9c5.5,0,10-4.5,10-10
			C56.8,367,52.3,362.5,46.8,362.5z"/>
	</g>
</g>
<g>
	<g>
		<path d="M135.6,492h-7.9v-68.4c0-4-2.4-7.7-6.2-9.2c-3.7-1.5-8-0.7-10.9,2.2l-18.8,18.8c-3.9,3.9-3.9,10.2,0,14.1
			c3.9,3.9,10.2,3.9,14.1,0l1.8-1.8V492h-7.9c-5.5,0-10,4.5-10,10s4.5,10,10,10h35.9c5.5,0,10-4.5,10-10
			C145.6,496.5,141.1,492,135.6,492z"/>
	</g>
</g>
<g>
	<g>
		<path d="M313.3,492h-7.9v-68.4c0-4-2.4-7.7-6.2-9.2c-3.7-1.5-8-0.7-10.9,2.2l-18.8,18.8c-3.9,3.9-3.9,10.2,0,14.1
			c3.9,3.9,10.2,3.9,14.1,0l1.8-1.8V492h-7.9c-5.5,0-10,4.5-10,10s4.5,10,10,10h35.9c5.5,0,10-4.5,10-10
			C323.3,496.5,318.8,492,313.3,492z"/>
	</g>
</g>
<g>
	<g>
		<path d="M402.1,492h-7.9v-68.4c0-4-2.4-7.7-6.2-9.2c-3.7-1.5-8-0.7-10.9,2.2l-18.8,18.8c-3.9,3.9-3.9,10.2,0,14.1
			c3.9,3.9,10.2,3.9,14.1,0l1.8-1.8V492h-7.9c-5.5,0-10,4.5-10,10s4.5,10,10,10h35.9c5.5,0,10-4.5,10-10
			C412.1,496.5,407.6,492,402.1,492z"/>
	</g>
</g>
<g>
	<g>
		<path d="M403.1,362.5H394v-24.2c0-5.5-4.5-10-10-10s-10,4.5-10,10v24.2h-6.8c-5.5,0-10,4.5-10,10s4.5,10,10,10h35.9
			c5.5,0,10-4.5,10-10C413.1,367,408.7,362.5,403.1,362.5z"/>
	</g>
</g>
<g>
	<g>
		<path d="M502,222.6h-7.9v-68.4c0-4-2.4-7.7-6.2-9.2c-3.7-1.5-8-0.7-10.9,2.2L458.2,166c-3.9,3.9-3.9,10.2,0,14.1
			c3.9,3.9,10.2,3.9,14.1,0l1.8-1.8v44.2h-7.9c-5.5,0-10,4.5-10,10s4.5,10,10,10H502c5.5,0,10-4.5,10-10S507.5,222.6,502,222.6z"/>
	</g>
</g>
<g>
	<g>
		<path d="M206.1,413.7c-21.8,0-39.4,17.7-39.4,39.4v19.5c0,21.8,17.7,39.4,39.4,39.4s39.4-17.7,39.4-39.4v-19.5
			C245.5,431.3,227.8,413.7,206.1,413.7z M225.5,472.6c0,10.7-8.7,19.4-19.4,19.4c-10.7,0-19.4-8.7-19.4-19.4v-19.5
			c0-10.7,8.7-19.4,19.4-19.4c10.7,0,19.4,8.7,19.4,19.4V472.6z"/>
	</g>
</g>
<g>
	<g>
		<path d="M39.4,144.2C17.7,144.2,0,161.9,0,183.7v19.5c0,21.8,17.7,39.4,39.4,39.4s39.4-17.7,39.4-39.4v-19.5
			C78.9,161.9,61.2,144.2,39.4,144.2z M39.4,222.6c-10.7,0-19.4-8.7-19.4-19.4v-19.5c0-10.7,8.7-19.4,19.4-19.4s19.4,8.7,19.4,19.4
			v19.5h0C58.9,213.8,50.2,222.6,39.4,222.6z"/>
	</g>
</g>
<g>
	<g>
		<path d="M123.8,362.5c-10.7,0-19.4-8.7-19.4-19.4v-19.5c0-5.5-4.5-10-10-10s-10,4.5-10,10v19.5c0,21.8,17.7,39.4,39.4,39.4
			c5.5,0,10-4.5,10-10C133.8,367,129.3,362.5,123.8,362.5z"/>
	</g>
</g>
<g>
	<g>
		<path d="M472.6,284.1c-21.8,0-39.4,17.7-39.4,39.4v19.5c0,21.8,17.7,39.4,39.4,39.4s39.4-17.7,39.4-39.4v-19.5
			C512,301.8,494.3,284.1,472.6,284.1z M492,343.1c0,10.7-8.7,19.4-19.4,19.4c-10.7,0-19.4-8.7-19.4-19.4v-19.5
			c0-10.7,8.7-19.4,19.4-19.4c10.7,0,19.4,8.7,19.4,19.4V343.1z"/>
	</g>
</g>
<g>
	<g>
		<path d="M472.6,413.7c-21.8,0-39.4,17.7-39.4,39.4v19.5c0,21.8,17.7,39.4,39.4,39.4s39.4-17.7,39.4-39.4v-19.5
			C512,431.3,494.3,413.7,472.6,413.7z M492,472.6c0,10.7-8.7,19.4-19.4,19.4c-10.7,0-19.4-8.7-19.4-19.4v-19.5
			c0-10.7,8.7-19.4,19.4-19.4c10.7,0,19.4,8.7,19.4,19.4V472.6z"/>
	</g>
</g>
<g>
	<g>
		<path d="M46.8,78.4h-7.9V10c0-4-2.4-7.7-6.2-9.2c-3.7-1.5-8-0.7-10.9,2.2L2.9,21.8C-1,25.7-1,32,2.9,35.9c3.9,3.9,10.2,3.9,14.1,0
			l1.8-1.8v44.2h-7.9c-5.5,0-10,4.5-10,10s4.5,10,10,10h35.9c5.5,0,10-4.5,10-10S52.3,78.4,46.8,78.4z"/>
	</g>
</g>
<g>
	<g>
		<path d="M135.6,78.4h-7.9V10c0-4-2.4-7.7-6.2-9.2c-3.7-1.5-8-0.7-10.9,2.2L91.8,21.8c-3.9,3.9-3.9,10.2,0,14.1
			c3.9,3.9,10.2,3.9,14.1,0l1.8-1.8v44.2h-7.9c-5.5,0-10,4.5-10,10s4.5,10,10,10h35.9c5.5,0,10-4.5,10-10S141.1,78.4,135.6,78.4z"/>
	</g>
</g>
<g>
	<g>
		<path d="M402.1,78.4h-7.9V10c0-4-2.4-7.7-6.2-9.2c-3.7-1.5-8-0.7-10.9,2.2l-18.8,18.8c-3.9,3.9-3.9,10.2,0,14.1s10.2,3.9,14.1,0
			l1.8-1.8v44.2h-7.9c-5.5,0-10,4.5-10,10s4.5,10,10,10h35.9c5.5,0,10-4.5,10-10S407.6,78.4,402.1,78.4z"/>
	</g>
</g>
<g>
	<g>
		<path d="M472.6,0c-21.8,0-39.4,17.7-39.4,39.4v19.5c0,21.8,17.7,39.4,39.4,39.4S512,80.7,512,58.9V39.4C512,17.7,494.3,0,472.6,0z
			 M492,58.9c0,10.7-8.7,19.4-19.4,19.4c-10.7,0-19.4-8.7-19.4-19.4V39.4c0-10.7,8.7-19.4,19.4-19.4c10.7,0,19.4,8.7,19.4,19.4V58.9
			z"/>
	</g>
</g>
<g>
	<g>
		<path d="M384.1,144.2c-1.4,0-2.8,0.3-4,0.8c-5.6-11.3-17.3-19-30.7-19H348V92c0-32.7-17.6-63.2-46-79.6
			c-4.8-2.8-10.9-1.1-13.7,3.6s-1.1,10.9,3.6,13.7c22.2,12.9,36,36.7,36,62.3v34h-21V92c0-28.1-22.9-51-51-51s-51,22.9-51,51v34h-21
			V92c0-25.6,13.8-49.4,36-62.3c4.8-2.8,6.4-8.9,3.6-13.7c-2.8-4.8-8.9-6.4-13.7-3.6c-28.3,16.4-46,46.9-46,79.6v34h-1.5
			c-18.9,0-34.3,15.4-34.3,34.3v147.1c0,24.1,19.6,43.6,43.6,43.6h29.4v11.5h-7.9c-5.5,0-10,4.5-10,10s4.5,10,10,10h35.9
			c5.5,0,10-4.5,10-10s-4.5-10-10-10h-7.9V351h29.3c5.5,0,10-4.5,10-10s-4.5-10-10-10h-78.6c-13,0-23.6-10.6-23.6-23.6v-79.5h215.5
			v79.5c0,13-10.6,23.6-23.6,23.6h-12.3c-5.5,0-10,4.5-10,10s4.5,10,10,10h12.3c24.1,0,43.6-19.6,43.6-43.6v-64.8c0.1,0,0.3,0,0.4,0
			c21.8,0,39.4-17.7,39.4-39.4v-19.5C423.6,161.9,405.9,144.2,384.1,144.2z M256,61c17.1,0,31,13.9,31,31v34h-62V92h0
			C225,74.9,238.9,61,256,61z M148.2,160.3c0-7.9,6.4-14.3,14.3-14.3h30.7l-45,45L148.2,160.3L148.2,160.3z M159.7,207.8l61.2-61.2
			c0.2-0.2,0.4-0.4,0.5-0.6h48.3l-61.8,61.8H159.7z M284.6,207.8h-48.4L298,146h47.9l-59.6,59.6C285.6,206.3,285.1,207,284.6,207.8z
			 M363.8,207.8h-51.4l51-51c0.3,1.1,0.4,2.3,0.4,3.4V207.8z M403.6,203.1c0,10.7-8.7,19.4-19.4,19.4c-0.1,0-0.3,0-0.4,0v-58.4
			c0.1,0,0.3,0,0.4,0c10.7,0,19.4,8.7,19.4,19.4V203.1z"/>
	</g>
</g>
<g>
	<g>
		<path d="M256.7,0L256,0c-5.5,0-10,4.5-10,10s4.5,10,10,10l0.5,0c0,0,0,0,0.1,0c5.5,0,10-4.4,10-9.9C266.7,4.6,262.2,0,256.7,0z"/>
	</g>
</g>
</svg>
