<?xml version="1.0" encoding="utf-8"?>
<!-- Generator: Adobe Illustrator 24.0.0, SVG Export Plug-In . SVG Version: 6.00 Build 0)  -->
<svg version="1.1" id="Capa_1" xmlns="http://www.w3.org/2000/svg" xmlns:xlink="http://www.w3.org/1999/xlink" x="0px" y="0px"
	 viewBox="0 0 512 512" style="enable-background:new 0 0 512 512;" xml:space="preserve">
<g>
	<g>
		<path d="M360.1,375.3c-7.8-7.8-20.5-7.7-28.3,0.1L275,432.7V236.5c0-11-9-20-20-20c-11,0-20,9-20,20v194.2l-54.8-55.3
			c-7.8-7.8-20.4-7.9-28.3-0.1c-7.8,7.8-7.9,20.4-0.1,28.3l61.7,62.2c11.4,11.4,26.5,17.8,42.5,17.8s31.2-6.3,42.5-17.8l61.7-62.2
			C368,395.7,367.9,383.1,360.1,375.3z"/>
	</g>
</g>
<g>
	<g>
		<path d="M462,178.1v-13.3c0-75.2-61.2-136.3-136.3-136.3c-32.7,0-64.4,11.8-89.1,33.2c-16.4,14.1-29,31.9-37.1,51.6
			c-12.4-6.3-26.3-9.8-40.5-9.8c-49.1,0-89,39.9-89,89v18.2c-40,9-70,44.5-70,86.8c0,23.8,9,46.1,25.3,62.8
			c16.5,16.9,38.8,26.2,62.7,26.2h7c11,0,20-9,20-20s-9-20-20-20h-7c-26.9,0-48-21.5-48-49c0-27,22.4-49,49.8-49H90c11,0,20-9,20-20
			v-36c0-27,22-49,49-49c14,0,27.4,6.1,36.7,16.6c5.1,5.8,13.2,8.1,20.6,6c7.4-2.2,13-8.5,14.1-16.1c7.2-46.4,48.1-81.4,95.2-81.4
			c53.1,0,96.3,43.2,96.3,96.3v24.6c0,7.4,4.1,14.2,10.6,17.7c24.3,12.9,39.4,38,39.4,65.4c0,34.8-23.6,64.4-57.5,72.1
			c-10.8,2.5-17.5,13.2-15,23.9c2.5,10.8,13.2,17.5,23.9,15c24.8-5.7,47.2-19.7,63.3-39.6c16.3-20.2,25.3-45.6,25.3-71.6
			C512,234.4,493.1,199.2,462,178.1z"/>
	</g>
</g>
</svg>
