<?xml version="1.0" encoding="utf-8"?>
<!-- Generator: Adobe Illustrator 24.0.0, SVG Export Plug-In . SVG Version: 6.00 Build 0)  -->
<svg version="1.1" id="Режим_изоляции"
	 xmlns="http://www.w3.org/2000/svg" xmlns:xlink="http://www.w3.org/1999/xlink" x="0px" y="0px" viewBox="0 0 1486 1289.9"
	 style="enable-background:new 0 0 1486 1289.9;" xml:space="preserve">
<style type="text/css">
	.st0{fill:#231F20;}
</style>
<path class="st0" d="M1506.7,774.9l-78.3-248c-0.4-2.3-1.1-4.5-1.9-6.7l-157-498.4c-8.6-26.4-32.8-44.1-59.7-43.9
	c-27.3,0.1-50.4,17.5-58.9,44.3l-149.6,475H528.8l-149.9-475C370.5-4.6,347.4-22,320-22.1c-0.1,0-0.2,0-0.3,0
	c-26.9,0-50.7,17.6-59.4,44.3l-156.9,499c-0.2,0.4-0.4,0.8-0.5,1.3L23.2,774.9c-12,38.1,1,79.6,32.4,103.1l688.5,515.8
	c6.2,4.7,13.5,6.9,20.7,6.9c7.4,0,14.8-2.4,20.9-7.2c0,0,0.1,0,0.1-0.1L1474.3,878C1505.7,854.5,1518.7,813,1506.7,774.9z
	 M477.6,570.1l191.9,609l-460.7-609H477.6z M860.4,1179.2l184-583.9l8-25.3h269l-416.6,550.5L860.4,1179.2z M1210.3,68.9
	l134.9,428.2h-269.8L1210.3,68.9z M978.4,569.8L844.7,994l-79.6,252.6L551.7,569.8H978.4z M319.6,68.9l135.1,428.2H185L319.6,68.9z
	 M97,819.3c-6.7-5-9.4-13.8-6.9-21.9l59.2-187.4l434,573.7L97,819.3z M1432.9,819.3l-486.3,364.1l1.7-2.2L1380.6,610l59.1,187.4
	C1442.3,805.5,1439.5,814.3,1432.9,819.3z"/>
</svg>
