<?xml version="1.0" encoding="utf-8"?><svg xmlns="http://www.w3.org/2000/svg" xmlns:xlink="http://www.w3.org/1999/xlink"><symbol viewBox="0 0 512 512" id="10" xmlns="http://www.w3.org/2000/svg"><path d="M300.4 334c-1.9-1.9-4.4-2.9-7.1-2.9-2.6 0-5.2 1.1-7.1 2.9-1.9 1.9-2.9 4.4-2.9 7.1s1.1 5.2 2.9 7.1c1.9 1.9 4.4 2.9 7.1 2.9 2.6 0 5.2-1.1 7.1-2.9 1.9-1.9 2.9-4.4 2.9-7.1s-1-5.3-2.9-7.1zm-37.3-85.1c-1.9-1.9-4.4-2.9-7.1-2.9s-5.2 1.1-7.1 2.9-2.9 4.4-2.9 7.1 1.1 5.2 2.9 7.1c1.9 1.9 4.4 2.9 7.1 2.9s5.2-1.1 7.1-2.9c1.9-1.9 2.9-4.4 2.9-7.1s-1.1-5.2-2.9-7.1zm-7.1 28.8c-5.5 0-10 4.5-10 10v15c0 5.5 4.5 10 10 10s10-4.5 10-10v-15c0-5.5-4.5-10-10-10zM46.8 492h-7.9v-68.4c0-4-2.4-7.7-6.2-9.2-3.7-1.5-8-.7-10.9 2.2L2.9 435.4c-3.9 3.9-3.9 10.2 0 14.1 3.9 3.9 10.2 3.9 14.1 0l1.8-1.8V492h-7.9c-5.5 0-10 4.5-10 10s4.5 10 10 10h35.9c5.5 0 10-4.5 10-10s-4.5-10-10-10zm0-129.5h-7.9v-68.4c0-4-2.4-7.7-6.2-9.2-3.7-1.5-8-.7-10.9 2.2L2.9 305.9c-3.9 3.9-3.9 10.2 0 14.1 3.9 3.9 10.2 3.9 14.1 0l1.8-1.8v44.2h-7.9c-5.5 0-10 4.5-10 10s4.5 10 10 10h35.9c5.5 0 10-4.5 10-10 0-5.4-4.5-9.9-10-9.9zM135.6 492h-7.9v-68.4c0-4-2.4-7.7-6.2-9.2-3.7-1.5-8-.7-10.9 2.2l-18.8 18.8c-3.9 3.9-3.9 10.2 0 14.1 3.9 3.9 10.2 3.9 14.1 0l1.8-1.8V492h-7.9c-5.5 0-10 4.5-10 10s4.5 10 10 10h35.9c5.5 0 10-4.5 10-10-.1-5.5-4.6-10-10.1-10zm177.7 0h-7.9v-68.4c0-4-2.4-7.7-6.2-9.2-3.7-1.5-8-.7-10.9 2.2l-18.8 18.8c-3.9 3.9-3.9 10.2 0 14.1 3.9 3.9 10.2 3.9 14.1 0l1.8-1.8V492h-7.9c-5.5 0-10 4.5-10 10s4.5 10 10 10h35.9c5.5 0 10-4.5 10-10-.1-5.5-4.6-10-10.1-10zm88.8 0h-7.9v-68.4c0-4-2.4-7.7-6.2-9.2-3.7-1.5-8-.7-10.9 2.2l-18.8 18.8c-3.9 3.9-3.9 10.2 0 14.1 3.9 3.9 10.2 3.9 14.1 0l1.8-1.8V492h-7.9c-5.5 0-10 4.5-10 10s4.5 10 10 10h35.9c5.5 0 10-4.5 10-10-.1-5.5-4.6-10-10.1-10zm1-129.5H394v-24.2c0-5.5-4.5-10-10-10s-10 4.5-10 10v24.2h-6.8c-5.5 0-10 4.5-10 10s4.5 10 10 10h35.9c5.5 0 10-4.5 10-10s-4.4-10-10-10zM502 222.6h-7.9v-68.4c0-4-2.4-7.7-6.2-9.2-3.7-1.5-8-.7-10.9 2.2L458.2 166c-3.9 3.9-3.9 10.2 0 14.1 3.9 3.9 10.2 3.9 14.1 0l1.8-1.8v44.2h-7.9c-5.5 0-10 4.5-10 10s4.5 10 10 10H502c5.5 0 10-4.5 10-10s-4.5-9.9-10-9.9zM206.1 413.7c-21.8 0-39.4 17.7-39.4 39.4v19.5c0 21.8 17.7 39.4 39.4 39.4s39.4-17.7 39.4-39.4v-19.5c0-21.8-17.7-39.4-39.4-39.4zm19.4 58.9c0 10.7-8.7 19.4-19.4 19.4s-19.4-8.7-19.4-19.4v-19.5c0-10.7 8.7-19.4 19.4-19.4s19.4 8.7 19.4 19.4v19.5zM39.4 144.2C17.7 144.2 0 161.9 0 183.7v19.5c0 21.8 17.7 39.4 39.4 39.4s39.4-17.7 39.4-39.4v-19.5c.1-21.8-17.6-39.5-39.4-39.5zm0 78.4c-10.7 0-19.4-8.7-19.4-19.4v-19.5c0-10.7 8.7-19.4 19.4-19.4s19.4 8.7 19.4 19.4v19.5c.1 10.6-8.6 19.4-19.4 19.4zm84.4 139.9c-10.7 0-19.4-8.7-19.4-19.4v-19.5c0-5.5-4.5-10-10-10s-10 4.5-10 10v19.5c0 21.8 17.7 39.4 39.4 39.4 5.5 0 10-4.5 10-10s-4.5-10-10-10zm348.8-78.4c-21.8 0-39.4 17.7-39.4 39.4V343c0 21.8 17.7 39.4 39.4 39.4S512 364.7 512 343v-19.5c0-21.7-17.7-39.4-39.4-39.4zm19.4 59c0 10.7-8.7 19.4-19.4 19.4s-19.4-8.7-19.4-19.4v-19.5c0-10.7 8.7-19.4 19.4-19.4s19.4 8.7 19.4 19.4v19.5zm-19.4 70.6c-21.8 0-39.4 17.7-39.4 39.4v19.5c0 21.8 17.7 39.4 39.4 39.4s39.4-17.7 39.4-39.4v-19.5c0-21.8-17.7-39.4-39.4-39.4zm19.4 58.9c0 10.7-8.7 19.4-19.4 19.4s-19.4-8.7-19.4-19.4v-19.5c0-10.7 8.7-19.4 19.4-19.4s19.4 8.7 19.4 19.4v19.5zM46.8 78.4h-7.9V10c0-4-2.4-7.7-6.2-9.2C29-.7 24.7.1 21.8 3L2.9 21.8C-1 25.7-1 32 2.9 35.9c3.9 3.9 10.2 3.9 14.1 0l1.8-1.8v44.2h-7.9c-5.5 0-10 4.5-10 10s4.5 10 10 10h35.9c5.5 0 10-4.5 10-10s-4.5-9.9-10-9.9zm88.8 0h-7.9V10c0-4-2.4-7.7-6.2-9.2-3.7-1.5-8-.7-10.9 2.2L91.8 21.8c-3.9 3.9-3.9 10.2 0 14.1 3.9 3.9 10.2 3.9 14.1 0l1.8-1.8v44.2h-7.9c-5.5 0-10 4.5-10 10s4.5 10 10 10h35.9c5.5 0 10-4.5 10-10s-4.6-9.9-10.1-9.9zm266.5 0h-7.9V10c0-4-2.4-7.7-6.2-9.2-3.7-1.5-8-.7-10.9 2.2l-18.8 18.8c-3.9 3.9-3.9 10.2 0 14.1s10.2 3.9 14.1 0l1.8-1.8v44.2h-7.9c-5.5 0-10 4.5-10 10s4.5 10 10 10h35.9c5.5 0 10-4.5 10-10s-4.6-9.9-10.1-9.9zM472.6 0c-21.8 0-39.4 17.7-39.4 39.4v19.5c0 21.8 17.7 39.4 39.4 39.4S512 80.7 512 58.9V39.4C512 17.7 494.3 0 472.6 0zM492 58.9c0 10.7-8.7 19.4-19.4 19.4s-19.4-8.7-19.4-19.4V39.4c0-10.7 8.7-19.4 19.4-19.4S492 28.7 492 39.4v19.5z"/><path d="M384.1 144.2c-1.4 0-2.8.3-4 .8-5.6-11.3-17.3-19-30.7-19H348V92c0-32.7-17.6-63.2-46-79.6-4.8-2.8-10.9-1.1-13.7 3.6s-1.1 10.9 3.6 13.7c22.2 12.9 36 36.7 36 62.3v34h-21V92c0-28.1-22.9-51-51-51s-51 22.9-51 51v34h-21V92c0-25.6 13.8-49.4 36-62.3 4.8-2.8 6.4-8.9 3.6-13.7-2.8-4.8-8.9-6.4-13.7-3.6-28.3 16.4-46 46.9-46 79.6v34h-1.5c-18.9 0-34.3 15.4-34.3 34.3v147.1c0 24.1 19.6 43.6 43.6 43.6H201v11.5h-7.9c-5.5 0-10 4.5-10 10s4.5 10 10 10H229c5.5 0 10-4.5 10-10s-4.5-10-10-10h-7.9V351h29.3c5.5 0 10-4.5 10-10s-4.5-10-10-10h-78.6c-13 0-23.6-10.6-23.6-23.6v-79.5h215.5v79.5c0 13-10.6 23.6-23.6 23.6h-12.3c-5.5 0-10 4.5-10 10s4.5 10 10 10h12.3c24.1 0 43.6-19.6 43.6-43.6v-64.8h.4c21.8 0 39.4-17.7 39.4-39.4v-19.5c.1-21.8-17.6-39.5-39.4-39.5zM256 61c17.1 0 31 13.9 31 31v34h-62V92c0-17.1 13.9-31 31-31zm-107.8 99.3c0-7.9 6.4-14.3 14.3-14.3h30.7l-45 45v-30.7zm11.5 47.5l61.2-61.2c.2-.2.4-.4.5-.6h48.3l-61.8 61.8h-48.2zm124.9 0h-48.4L298 146h47.9l-59.6 59.6c-.7.7-1.2 1.4-1.7 2.2zm79.2 0h-51.4l51-51c.3 1.1.4 2.3.4 3.4v47.6zm39.8-4.7c0 10.7-8.7 19.4-19.4 19.4h-.4v-58.4h.4c10.7 0 19.4 8.7 19.4 19.4v19.6z"/><path d="M256.7 0h-.7c-5.5 0-10 4.5-10 10s4.5 10 10 10h.6c5.5 0 10-4.4 10-9.9.1-5.5-4.4-10.1-9.9-10.1z"/></symbol><symbol viewBox="0 0 305 305" id="apple" xmlns="http://www.w3.org/2000/svg"><path d="M40.7 112.1C15 156.9 31.3 224.8 59.9 265.9c14.2 20.6 28.6 39.1 48.4 39.1h1.1c9.3-.4 16-3.2 22.5-6 7.3-3.1 14.8-6.3 26.6-6.3 11.2 0 18.4 3.1 25.3 6.1 6.8 3 13.9 6 24.3 5.8 22.2-.4 35.9-20.4 47.9-37.9 12.6-18.4 18.9-36.2 21-43l.1-.3c.4-1.2-.2-2.5-1.3-3.1 0 0-.1-.1-.2-.1-3.9-1.6-38.3-16.8-38.6-58.4-.3-33.7 25.8-51.6 31-54.8l.2-.2c.6-.4 1-.9 1.1-1.6.1-.7 0-1.3-.4-1.9-18-26.4-45.6-30.3-56.7-30.8-1.6-.2-3.3-.2-4.9-.2-13.1 0-25.6 4.9-35.6 8.9-6.9 2.7-12.9 5.1-17.1 5.1-4.6 0-10.7-2.4-17.6-5.2-9.3-3.7-19.9-7.9-31.1-7.9h-.8c-26.2.4-50.8 15.3-64.4 38.9z"/><path d="M212.1 0c-15.8.6-34.7 10.3-46 23.6-9.6 11.1-19 29.7-16.5 48.4.2 1.2 1.1 2.1 2.3 2.2 1.1.1 2.1.1 3.2.1 15.4 0 32-8.5 43.4-22.3 12-14.5 18-33.1 16.2-49.8-.2-1.3-1.3-2.2-2.6-2.2z"/></symbol><symbol viewBox="0 0 512 512" id="blackbird" xmlns="http://www.w3.org/2000/svg"><path d="M512 97.2c-19 8.4-39.3 13.9-60.5 16.6 21.8-13 38.4-33.4 46.2-58-20.3 12.1-42.7 20.6-66.6 25.4C411.9 60.7 384.4 48 354.5 48c-58.1 0-104.9 47.2-104.9 105 0 8.3.7 16.3 2.4 23.9-87.3-4.3-164.5-46.1-216.4-109.8-9.1 15.7-14.4 33.7-14.4 53.1 0 36.4 18.7 68.6 46.6 87.2-16.9-.3-33.4-5.2-47.4-12.9v1.2c0 51 36.4 93.4 84.1 103.1-8.5 2.3-17.9 3.5-27.5 3.5-6.7 0-13.5-.4-19.9-1.8 13.6 41.6 52.2 72.1 98.1 73.1-35.7 27.9-81.1 44.8-130.1 44.8-8.6 0-16.9-.4-25.1-1.4 46.5 30 101.6 47.1 161 47.1 193.2 0 298.8-160 298.8-298.7 0-4.6-.2-9.1-.4-13.6 20.8-14.8 38.3-33.3 52.6-54.6z"/></symbol><symbol viewBox="0 0 95.939 95.939" id="close" xmlns="http://www.w3.org/2000/svg"><path d="M62.819 47.97l32.533-32.534a2 2 0 0 0 0-2.828L83.333.586a2.002 2.002 0 0 0-2.828 0L47.97 33.121 15.435.586c-.75-.75-2.078-.75-2.828 0L.587 12.608a2 2 0 0 0 0 2.828L33.121 47.97.587 80.504a2 2 0 0 0 0 2.828l12.02 12.021a2 2 0 0 0 2.828 0L47.97 62.818l32.535 32.535a2 2 0 0 0 2.828 0l12.02-12.021a2 2 0 0 0 0-2.828L62.819 47.97z"/></symbol><symbol viewBox="0 0 512 512" id="cloud" xmlns="http://www.w3.org/2000/svg"><path d="M360.1 375.3c-7.8-7.8-20.5-7.7-28.3.1L275 432.7V236.5c0-11-9-20-20-20s-20 9-20 20v194.2l-54.8-55.3c-7.8-7.8-20.4-7.9-28.3-.1-7.8 7.8-7.9 20.4-.1 28.3l61.7 62.2c11.4 11.4 26.5 17.8 42.5 17.8s31.2-6.3 42.5-17.8l61.7-62.2c7.8-7.9 7.7-20.5-.1-28.3z"/><path d="M462 178.1v-13.3c0-75.2-61.2-136.3-136.3-136.3-32.7 0-64.4 11.8-89.1 33.2-16.4 14.1-29 31.9-37.1 51.6-12.4-6.3-26.3-9.8-40.5-9.8-49.1 0-89 39.9-89 89v18.2c-40 9-70 44.5-70 86.8 0 23.8 9 46.1 25.3 62.8 16.5 16.9 38.8 26.2 62.7 26.2h7c11 0 20-9 20-20s-9-20-20-20h-7c-26.9 0-48-21.5-48-49 0-27 22.4-49 49.8-49h.2c11 0 20-9 20-20v-36c0-27 22-49 49-49 14 0 27.4 6.1 36.7 16.6 5.1 5.8 13.2 8.1 20.6 6 7.4-2.2 13-8.5 14.1-16.1 7.2-46.4 48.1-81.4 95.2-81.4 53.1 0 96.3 43.2 96.3 96.3v24.6c0 7.4 4.1 14.2 10.6 17.7 24.3 12.9 39.4 38 39.4 65.4 0 34.8-23.6 64.4-57.5 72.1-10.8 2.5-17.5 13.2-15 23.9 2.5 10.8 13.2 17.5 23.9 15 24.8-5.7 47.2-19.7 63.3-39.6 16.3-20.2 25.3-45.6 25.3-71.6.1-38-18.8-73.2-49.9-94.3z"/></symbol><symbol viewBox="0 0 430.1 430.1" id="fb" xmlns="http://www.w3.org/2000/svg"><path d="M158.1 83.3v59.2h-43.4v72.4h43.4v215.2h89.1V214.9H307s5.6-34.7 8.3-72.7h-67.8V92.7c0-7.4 9.7-17.4 19.3-17.4h48.6V-.1h-66c-93.5.1-91.3 72.6-91.3 83.4z"/></symbol><symbol viewBox="0 0 512 512" id="fire" xmlns="http://www.w3.org/2000/svg"><path d="M446.906 299.769c-5.865-76.359-41.417-124.21-72.781-166.436C345.083 94.241 320 60.483 320 10.685c0-4-2.24-7.656-5.792-9.489-3.563-1.844-7.844-1.542-11.083.812-47.104 33.706-86.406 90.515-100.135 144.719-9.531 37.737-10.792 80.161-10.969 108.18-43.5-9.291-53.354-74.359-53.458-75.068a10.72 10.72 0 0 0-5.552-7.916c-3.031-1.583-6.594-1.698-9.667-.177-2.281 1.104-55.99 28.394-59.115 137.355-.219 3.625-.229 7.261-.229 10.896 0 105.857 86.135 191.987 192 191.987.146.01.302.031.427 0h.135C362.167 511.681 448 425.667 448 319.997c0-5.323-1.094-20.228-1.094-20.228zM256 490.652c-35.292 0-64-30.581-64-68.172 0-1.281-.01-2.573.083-4.156.427-15.853 3.438-26.675 6.74-33.873 6.188 13.291 17.25 25.509 35.219 25.509a10.66 10.66 0 0 0 10.667-10.666c0-15.186.313-32.706 4.094-48.518 3.365-14.02 11.406-28.936 21.594-40.893 4.531 15.52 13.365 28.081 21.99 40.341 12.344 17.54 25.104 35.675 27.344 66.6.135 1.833.271 3.677.271 5.656-.002 37.59-28.71 68.172-64.002 68.172z"/></symbol><symbol id="fox" viewBox="0 0 1486 1289.9" xmlns="http://www.w3.org/2000/svg"><style>.hst0{fill:#231f20}</style><path class="hst0" d="M1506.7 774.9l-78.3-248c-.4-2.3-1.1-4.5-1.9-6.7l-157-498.4c-8.6-26.4-32.8-44.1-59.7-43.9-27.3.1-50.4 17.5-58.9 44.3l-149.6 475H528.8l-149.9-475C370.5-4.6 347.4-22 320-22.1h-.3c-26.9 0-50.7 17.6-59.4 44.3l-156.9 499c-.2.4-.4.8-.5 1.3L23.2 774.9c-12 38.1 1 79.6 32.4 103.1l688.5 515.8c6.2 4.7 13.5 6.9 20.7 6.9 7.4 0 14.8-2.4 20.9-7.2 0 0 .1 0 .1-.1L1474.3 878c31.4-23.5 44.4-65 32.4-103.1zM477.6 570.1l191.9 609-460.7-609h268.8zm382.8 609.1l184-583.9 8-25.3h269l-416.6 550.5-44.4 58.7zM1210.3 68.9l134.9 428.2h-269.8l134.9-428.2zM978.4 569.8L844.7 994l-79.6 252.6-213.4-676.8h426.7zM319.6 68.9l135.1 428.2H185L319.6 68.9zM97 819.3c-6.7-5-9.4-13.8-6.9-21.9L149.3 610l434 573.7L97 819.3zm1335.9 0l-486.3 364.1 1.7-2.2L1380.6 610l59.1 187.4c2.6 8.1-.2 16.9-6.8 21.9z"/></symbol><symbol viewBox="0 0 512 512" id="mute" xmlns="http://www.w3.org/2000/svg"><path d="M506.041 291.806l-35.844-35.844 35.844-35.844c7.808-7.807 7.807-20.465 0-28.273s-20.465-7.808-28.273 0l-35.844 35.844-35.844-35.844c-7.807-7.808-20.465-7.807-28.273 0s-7.808 20.465 0 28.273l35.844 35.844-35.844 35.844c-7.808 7.807-7.808 20.465 0 28.273 3.903 3.903 9.019 5.856 14.136 5.856s10.233-1.952 14.136-5.856l35.844-35.844 35.844 35.844c3.903 3.903 9.019 5.856 14.136 5.856s10.233-1.952 14.136-5.856c7.81-7.807 7.81-20.465.002-28.273zM295.166 4.873C272.465-4.699 247.404.04 229.765 17.24c-.415.405-.812.827-1.19 1.266l-113.27 131.498H80.071c-44.094 0-79.968 35.874-79.968 79.968v51.979c0 44.094 35.874 79.968 79.968 79.968h35.235l113.27 131.498c.378.439.775.862 1.19 1.266 11.658 11.367 26.532 17.317 41.826 17.316 7.932 0 15.978-1.601 23.743-4.875 22.596-9.527 36.633-30.695 36.633-55.242 0-11.042-8.95-19.992-19.992-19.992-11.042 0-19.992 8.95-19.992 19.992 0 12.306-9.325 17.194-12.183 18.399-2.855 1.203-12.716 4.422-21.584-3.716L139.618 328.881a19.99 19.99 0 0 0-15.147-6.944h-44.4c-22.047 0-39.984-17.937-39.984-39.984v-51.979c0-22.047 17.937-39.984 39.984-39.984h44.4a19.995 19.995 0 0 0 15.147-6.944L258.216 45.361c8.772-8.045 18.576-4.84 21.415-3.644 2.898 1.221 12.353 6.176 12.353 18.615v291.592c0 11.042 8.95 19.992 19.992 19.992s19.992-8.95 19.992-19.992V60.332c.001-24.637-14.101-45.887-36.802-55.459z"/></symbol><symbol viewBox="0 0 512 512" id="play" xmlns="http://www.w3.org/2000/svg"><path d="M387.6 337.9l-61.1-60.1L102 499.1l285.6-161.2zm0-163.7L102 13l224.4 221.3 61.2-60.1zm89.5 112.2c18.3-14.3 18.3-46.5-1.2-60.8l-59.9-34-66.8 64.5 66.8 64.5 61.1-34.2zM43.4 512l261-256L43.4 0C30.2 6.8 21.3 19.2 21.3 35.3v441.4c0 16.1 8.9 28.5 22.1 35.3z"/></symbol><symbol viewBox="0 0 64 64" id="share" xmlns="http://www.w3.org/2000/svg"><path d="M63.386 16.193l.002-.002a2.359 2.359 0 0 0 .405-.688c.032-.076.053-.148.076-.225.058-.191.094-.389.106-.596.006-.076.018-.148.016-.226 0-.04.01-.076.008-.115a2.601 2.601 0 0 0-.136-.687c-.006-.023-.022-.041-.03-.064a2.441 2.441 0 0 0-.363-.645c-.021-.027-.028-.063-.05-.09L53.109.709c-.789-.93-2.084-.948-2.894-.037-.808.91-.823 2.402-.032 3.334l5.558 6.549c-8.121-1.076-16.104.633-16.481.717C14.614 15.739-2.827 38.499.38 62.008.539 63.172 1.408 64 2.399 64c.106 0 .212-.009.32-.027 1.116-.203 1.878-1.409 1.704-2.696-2.857-20.94 13.056-41.282 35.537-45.358.103-.024 8.351-1.794 16.117-.574L47.5 20.438c-1.005.598-1.398 2.02-.881 3.177.516 1.159 1.748 1.608 2.756 1.017l13.52-8.028c.183-.111.347-.25.491-.411z"/></symbol><symbol viewBox="0 0 512 512" id="sound" xmlns="http://www.w3.org/2000/svg"><path d="M295.166 4.873C272.465-4.699 247.404.04 229.765 17.24c-.415.405-.812.827-1.19 1.266l-113.27 131.498H80.071c-44.094 0-79.968 35.874-79.968 79.968v51.979c0 44.094 35.874 79.968 79.968 79.968h35.235l113.27 131.498c.378.439.775.862 1.19 1.266 11.658 11.367 26.532 17.317 41.826 17.316 7.932 0 15.978-1.601 23.743-4.875 22.596-9.527 36.633-30.695 36.633-55.242 0-11.042-8.95-19.992-19.992-19.992-11.042 0-19.992 8.95-19.992 19.992 0 12.306-9.325 17.194-12.183 18.399-2.855 1.203-12.716 4.422-21.584-3.716L139.618 328.881a19.99 19.99 0 0 0-15.147-6.944h-44.4c-22.047 0-39.984-17.937-39.984-39.984v-51.979c0-22.047 17.937-39.984 39.984-39.984h44.4a19.995 19.995 0 0 0 15.147-6.944L258.216 45.361c8.772-8.045 18.576-4.84 21.415-3.644 2.898 1.221 12.353 6.176 12.353 18.615v291.592c0 11.042 8.95 19.992 19.992 19.992s19.992-8.95 19.992-19.992V60.332c.002-24.637-14.101-45.887-36.802-55.459zm121.346 308.611l.459-.842c5.228-9.59 14.96-27.439 14.96-56.675 0-30.328-10.53-48.906-15.59-57.835-5.446-9.605-17.644-12.98-27.251-7.535-9.605 5.445-12.979 17.645-7.535 27.251 4.138 7.3 10.392 18.334 10.392 38.119 0 19.044-6.067 30.172-10.081 37.536l-.49.898c-5.27 9.702-1.676 21.84 8.026 27.11a19.897 19.897 0 0 0 9.524 2.428c7.091 0 13.962-3.783 17.586-10.455z"/><path d="M445.999 98.339c-7.845-7.77-20.504-7.71-28.273.135-7.77 7.845-7.71 20.503.135 28.273 34.857 34.526 54.053 80.389 54.053 129.139 0 48.85-19.196 94.768-54.053 129.294-7.845 7.77-7.905 20.429-.135 28.273a19.927 19.927 0 0 0 14.204 5.923 19.927 19.927 0 0 0 14.068-5.789c42.496-42.092 65.898-98.099 65.898-157.702.001-59.503-23.401-115.454-65.897-157.546z"/></symbol><symbol viewBox="0 0 300 300" id="telegram" xmlns="http://www.w3.org/2000/svg"><path d="M5.3 144.6l69.1 25.8 26.8 86c1.7 5.5 8.5 7.5 12.9 3.9l38.5-31.4c4-3.3 9.8-3.5 14-.4l69.5 50.5c4.8 3.5 11.6.9 12.8-4.9l50.9-244.9c1.3-6.3-4.9-11.6-10.9-9.3L5.2 129.4c-7 2.7-6.9 12.6.1 15.2zm91.6 12.1L232 73.5c2.4-1.5 4.9 1.8 2.8 3.7L123.3 180.9c-3.9 3.6-6.4 8.5-7.2 13.8l-3.8 28.1c-.5 3.8-5.8 4.1-6.8.5L90.9 172c-1.6-5.8.8-12.1 6-15.3z"/></symbol></svg>